<svg xmlns="http://www.w3.org/2000/svg" viewBox="0 0 441.29 65.67"><g id="Layer_2" data-name="Layer 2"><g id="Logo_exports" data-name="Logo exports"><g id="Black_Diamond_-_WORDMARK-2021_Black" data-name="Black Diamond - WORDMARK-2021_Black"><path d="M72.24.46,63.45,65.21h7.31l1.39-9.9H82.6L84,65.21h8.13L83.43.46Zm.92,47.27,1-7.87c1.67-12.94,2.5-23.95,3.14-32.65.65,8.7,1.58,19.71,3.24,32.65l1,7.87Z" transform="translate(0)"/><path d="M167.32.46h-8L148.64,24.88c-.65,1.48-1.11,2.68-1.76,4.53V.46h-8.14V65.21h8.14V34.13a46.63,46.63,0,0,0,1.76,5.18l10.63,25.9h8.52L153.63,30.89Z" transform="translate(0)"/><path d="M116.26,0h-4.44C103.32,0,101,2.68,101,12V53.64c0,9.35,2.32,12,10.82,12h4.44c8.61,0,10.83-2.68,10.83-12V38.76h-7.68V52.35c0,4.35-.37,5.73-4.16,5.73h-1.94c-3.8,0-4.17-1.38-4.17-5.73v-39c0-4.35.37-5.73,4.17-5.73h1.94c3.79,0,4.16,1.38,4.16,5.73V24.14h7.68V12C127.09,2.68,124.87,0,116.26,0Z" transform="translate(0)"/><polygon points="46.24 0.46 38.1 0.46 38.1 65.21 56.88 65.21 56.88 57.62 46.24 57.62 46.24 0.46"/><path d="M15.72.46H0V8c1.91-.12,12.7,0,12.7,0h1.54c3.89,0,4.17,1.4,4.17,5.74v7.86c0,4.35-.38,5.74-4.17,5.74H8.14V12.88L0,21.52V65.21H15.72c8.6,0,10.82-2.68,10.82-12V42.36c0-6.75-1.2-9.9-5.17-11.19,4-1.21,5.17-4.44,5.17-11.29v-7.4C26.54,3.15,24.32.46,15.72.46Zm2.69,51.43c0,4.34-.28,5.73-4.17,5.73H8.14V35h6.1c3.79,0,4.17,1.39,4.17,5.74Z" transform="translate(0)"/><path d="M395.42,35c0,4.16.27,8,.37,11.75-.56-3.79-1.2-7.59-2.13-11.65L386,.46H375.71V65.21h7V27.93c0-4.25-.1-8-.19-11.84.55,3.79,1.11,7.59,2,11.66l8.69,37.46h9.25V.46h-7.12Z" transform="translate(0)"/><path d="M353.14,0h-4.89c-8.52,0-10.83,2.68-10.83,12V53.64c0,9.35,2.31,12,10.83,12h4.89c8.52,0,10.83-2.68,10.83-12V12C364,2.68,361.66,0,353.14,0Zm2.69,52.35c0,4.35-.37,5.73-4.16,5.73h-1.95c-3.79,0-4.16-1.38-4.16-5.73v-39c0-4.35.37-5.73,4.16-5.73h1.95c3.79,0,4.16,1.38,4.16,5.73Z" transform="translate(0)"/><path d="M430.38.46H414.75V8c3.37,0,11.55.07,11.55.07H429c3.8,0,4.16,1.4,4.16,5.74V51.89c0,4.34-.36,5.73-4.16,5.73h-6.1V11.67l-8.14,8.64v44.9h15.63c8.6,0,10.91-2.68,10.91-12V12.48C441.29,3.15,439,.46,430.38.46Z" transform="translate(0)"/><path d="M308.1,37.09c-.37,3-.56,6.38-.74,9.62-.28-3.24-.37-6.66-.74-9.62l-5-36.63H289.14V65.21h7V26.08c0-3.33-.09-8.32-.19-12.21.47,4,1.12,8.88,1.67,12.21l6,39.13h6.75l6-39.13c.46-3,1-7.77,1.47-11.65-.09,3.7-.18,8.32-.18,11.65V65.21h7.95V.46H313Z" transform="translate(0)"/><path d="M210.15.46H194.52V8c2.92-.06,12.1.06,12.1.06h2.14c3.79,0,4.16,1.4,4.16,5.74V51.89c0,4.34-.37,5.73-4.16,5.73h-6.1V12.25l-8.14,8.64V65.21h15.63c8.6,0,10.91-2.68,10.91-12V12.48C221.06,3.15,218.75.46,210.15.46Z" transform="translate(0)"/><rect x="232.9" y="0.46" width="8.14" height="64.74"/><path d="M259.54.46l-8.78,64.75h7.3l1.39-9.9H269.9l1.38,9.9h8.14L270.73.46Zm.92,47.27,1-7.87c1.67-12.94,2.5-23.95,3.15-32.65.65,8.7,1.57,19.71,3.24,32.65l1,7.87Z" transform="translate(0)"/></g></g></g></svg>