<svg xmlns="http://www.w3.org/2000/svg" viewBox="0 0 600 106.11"><defs><style>.cls-1{fill:#fff;}</style></defs><g id="Layer_2" data-name="Layer 2"><g id="Logo_exports" data-name="Logo exports"><g id="Black_Diamond_-_LOGO-2021_White_on_BG" data-name="Black Diamond - LOGO-2021_White on BG"><rect width="600" height="106.11"/><path class="cls-1" d="M94.05,50.47,69.46,12.15l-4-6.24-4,6.23L36.63,50.46,35,53.06l1.67,2.59L61.42,94l4,6.22,4-6.24L94.05,55.64l1.66-2.58ZM65.43,91.38,40.65,53.06,65.43,14.73,90,53.06Z"/><polygon class="cls-1" points="65.32 53.08 65.32 53.08 65.2 22.85 46.6 52.86 65.32 53.08"/><polygon class="cls-1" points="65.36 53.03 65.36 53.03 65.48 83.26 84.08 53.25 65.36 53.03"/><path class="cls-1" d="M291.07,20.69H283L272.39,45.1c-.65,1.48-1.11,2.68-1.76,4.53V20.69h-8.14V85.43h8.14V54.35a45.94,45.94,0,0,0,1.76,5.18L283,85.43h8.52L277.38,51.11Z"/><polygon class="cls-1" points="170 20.69 161.85 20.69 161.85 85.43 180.63 85.43 180.63 77.84 170 77.84 170 20.69"/><path class="cls-1" d="M196,20.69,187.2,85.43h7.31l1.39-9.9h10.45l1.39,9.9h8.13l-8.69-64.74ZM196.91,68l1-7.86c1.67-13,2.5-24,3.14-32.66.65,8.7,1.58,19.71,3.24,32.66l1,7.86Z"/><path class="cls-1" d="M139.47,20.69H123.75v7.54c1.91-.12,12.69,0,12.69,0H138c3.89,0,4.17,1.39,4.17,5.73v7.87c0,4.34-.38,5.73-4.17,5.73h-6.1V33.1l-8.14,8.65V85.43h15.72c8.6,0,10.82-2.68,10.82-12V62.58c0-6.75-1.2-9.89-5.17-11.19,4-1.2,5.17-4.44,5.17-11.28v-7.4C150.29,23.37,148.07,20.69,139.47,20.69Zm2.69,51.42c0,4.35-.28,5.73-4.17,5.73h-6.1V55.18H138c3.79,0,4.17,1.39,4.17,5.74Z"/><path class="cls-1" d="M240,20.22h-4.44c-8.5,0-10.82,2.68-10.82,12V73.87c0,9.34,2.32,12,10.82,12H240c8.61,0,10.83-2.68,10.83-12V59h-7.68V72.57c0,4.35-.37,5.74-4.16,5.74h-1.94c-3.8,0-4.17-1.39-4.17-5.74v-39c0-4.35.37-5.73,4.17-5.73H239c3.79,0,4.16,1.38,4.16,5.73V44.36h7.68V32.24C250.84,22.9,248.62,20.22,240,20.22Z"/><path class="cls-1" d="M476.89,20.22H472c-8.51,0-10.82,2.68-10.82,12V73.87c0,9.34,2.31,12,10.82,12h4.9c8.52,0,10.83-2.68,10.83-12V32.24C487.72,22.9,485.41,20.22,476.89,20.22Zm2.69,52.35c0,4.35-.37,5.74-4.16,5.74h-1.95c-3.79,0-4.16-1.39-4.16-5.74v-39c0-4.35.37-5.73,4.16-5.73h1.95c3.79,0,4.16,1.38,4.16,5.73Z"/><path class="cls-1" d="M333.9,20.69H318.27V28.2c2.92-.06,12.1.07,12.1.07h2.14c3.79,0,4.16,1.39,4.16,5.73V72.11c0,4.35-.37,5.73-4.16,5.73h-6.1V32.47l-8.14,8.64V85.43H333.9c8.6,0,10.91-2.68,10.91-12V32.71C344.81,23.37,342.5,20.69,333.9,20.69Z"/><path class="cls-1" d="M554.13,20.69H538.5v7.5c3.37,0,11.55.08,11.55.08h2.69c3.8,0,4.16,1.39,4.16,5.73V72.11c0,4.35-.36,5.73-4.16,5.73h-6.1V31.89l-8.14,8.64v44.9h15.63c8.6,0,10.91-2.68,10.91-12V32.71C565,23.37,562.73,20.69,554.13,20.69Z"/><path class="cls-1" d="M519.17,55.18c0,4.17.27,8,.37,11.75-.56-3.79-1.2-7.58-2.13-11.65l-7.68-34.59H499.46V85.43h7V48.16c0-4.26-.1-8-.19-11.84.55,3.79,1.11,7.58,2,11.65L517,85.43h9.25V20.69h-7.12Z"/><rect class="cls-1" x="356.65" y="20.69" width="8.14" height="64.74"/><path class="cls-1" d="M383.29,20.69l-8.78,64.74h7.3l1.39-9.9h10.45l1.38,9.9h8.14l-8.69-64.74ZM384.21,68l1-7.86c1.67-13,2.5-24,3.15-32.66.65,8.7,1.57,19.71,3.24,32.66l1,7.86Z"/><path class="cls-1" d="M431.85,57.31c-.37,3-.56,6.38-.74,9.62-.28-3.24-.37-6.66-.74-9.62l-5-36.62H412.89V85.43h7V46.31c0-3.34-.09-8.33-.19-12.22.47,4,1.12,8.88,1.67,12.22l6,39.12h6.75l6-39.12c.46-3.06,1-7.78,1.47-11.66-.09,3.7-.18,8.32-.18,11.66V85.43h7.95V20.69H436.75Z"/></g></g></g></svg>