<svg xmlns="http://www.w3.org/2000/svg" viewBox="0 0 530.09 94.3"><defs><style>.cls-1{fill:#fff;}</style></defs><g id="Layer_2" data-name="Layer 2"><g id="Logo_exports" data-name="Logo exports"><g id="Black_Diamond_-_LOGO-2021_White" data-name="Black Diamond - LOGO-2021_White"><path class="cls-1" d="M59.1,44.57,34.5,6.24,30.49,0l-4,6.23L1.68,44.55,0,47.15l1.68,2.59L26.47,88.07l4,6.23,4-6.25L59.1,49.73l1.65-2.58ZM30.48,85.47,5.69,47.15,30.48,8.83,55.07,47.15Z" transform="translate(0 0)"/><polygon class="cls-1" points="30.36 47.17 30.36 47.17 30.24 16.94 11.65 46.95 30.36 47.17"/><polygon class="cls-1" points="30.4 47.13 30.4 47.13 30.53 77.35 49.12 47.35 30.4 47.13"/><path class="cls-1" d="M519.17,14.78H503.54v7.51c3.38-.05,11.55.07,11.55.07h2.69c3.8,0,4.17,1.39,4.17,5.73V66.2c0,4.35-.37,5.74-4.17,5.74h-6.1V26l-8.14,8.64v44.9h15.63c8.6,0,10.92-2.68,10.92-12V26.8C530.09,17.46,527.77,14.78,519.17,14.78Z" transform="translate(0 0)"/><path class="cls-1" d="M161,14.78l-8.78,64.74h7.3l1.39-9.9h10.45l1.39,9.9h8.14l-8.7-64.74ZM162,62l1-7.86c1.67-13,2.5-24,3.15-32.65.65,8.69,1.57,19.7,3.23,32.65l1,7.86Z" transform="translate(0 0)"/><path class="cls-1" d="M205.06,14.31h-4.44c-8.51,0-10.82,2.69-10.82,12V68c0,9.34,2.31,12,10.82,12h4.44c8.6,0,10.82-2.68,10.82-12V53.07H208.2V66.66c0,4.35-.36,5.74-4.16,5.74H202.1c-3.8,0-4.16-1.39-4.16-5.74v-39c0-4.34.36-5.73,4.16-5.73H204c3.8,0,4.16,1.39,4.16,5.73V38.45h7.68V26.34C215.88,17,213.66,14.31,205.06,14.31Z" transform="translate(0 0)"/><polygon class="cls-1" points="135.04 14.78 126.9 14.78 126.9 79.52 145.68 79.52 145.68 71.94 135.04 71.94 135.04 14.78"/><path class="cls-1" d="M104.51,14.78H88.79v7.54c1.92-.11,12.7,0,12.7,0H103c3.88,0,4.16,1.39,4.16,5.73V36c0,4.34-.37,5.73-4.16,5.73H96.93V27.2l-8.14,8.64V79.52h15.72c8.61,0,10.83-2.68,10.83-12V56.67c0-6.75-1.2-9.89-5.18-11.19,4-1.2,5.18-4.44,5.18-11.28V26.8C115.34,17.46,113.12,14.78,104.51,14.78ZM107.2,66.2c0,4.35-.28,5.74-4.16,5.74H96.93V49.27H103c3.79,0,4.16,1.4,4.16,5.74Z" transform="translate(0 0)"/><path class="cls-1" d="M484.21,49.27c0,4.17.28,8,.37,11.75-.56-3.79-1.2-7.58-2.13-11.65l-7.67-34.59H464.51V79.52h7V42.25c0-4.26-.1-8-.19-11.84.56,3.79,1.11,7.58,2,11.65l8.69,37.46h9.25V14.78h-7.12Z" transform="translate(0 0)"/><path class="cls-1" d="M441.94,14.31H437c-8.51,0-10.82,2.69-10.82,12V68c0,9.34,2.31,12,10.82,12h4.9c8.51,0,10.82-2.68,10.82-12V26.34C452.76,17,450.45,14.31,441.94,14.31Zm2.68,52.35c0,4.35-.37,5.74-4.16,5.74h-1.94c-3.79,0-4.16-1.39-4.16-5.74v-39c0-4.34.37-5.73,4.16-5.73h1.94c3.79,0,4.16,1.39,4.16,5.73Z" transform="translate(0 0)"/><path class="cls-1" d="M348.33,14.78l-8.78,64.74h7.3l1.39-9.9h10.45l1.39,9.9h8.14l-8.7-64.74ZM349.26,62l1-7.86c1.66-13,2.49-24,3.14-32.65.65,8.69,1.57,19.7,3.24,32.65l1,7.86Z" transform="translate(0 0)"/><path class="cls-1" d="M396.89,51.4c-.37,3-.55,6.39-.74,9.62-.28-3.23-.37-6.66-.73-9.62l-5-36.62H377.93V79.52h7V40.4c0-3.33-.09-8.33-.18-12.21.46,4,1.11,8.88,1.66,12.21l6,39.12h6.76l6-39.12c.46-3.06,1-7.77,1.48-11.66-.09,3.7-.19,8.33-.19,11.66V79.52h8V14.78H401.8Z" transform="translate(0 0)"/><path class="cls-1" d="M256.12,14.78h-8.05L237.43,39.19c-.64,1.49-1.11,2.69-1.76,4.53V14.78h-8.13V79.52h8.13V48.44a50.32,50.32,0,0,0,1.76,5.18l10.64,25.9h8.51L242.43,45.21Z" transform="translate(0 0)"/><rect class="cls-1" x="321.7" y="14.78" width="8.14" height="64.74"/><path class="cls-1" d="M298.94,14.78H283.31V22.3c2.92-.07,12.1.06,12.1.06h2.14c3.79,0,4.17,1.39,4.17,5.73V66.2c0,4.35-.38,5.74-4.17,5.74h-6.1V26.57l-8.14,8.64V79.52h15.63c8.6,0,10.92-2.68,10.92-12V26.8C309.86,17.46,307.54,14.78,298.94,14.78Z" transform="translate(0 0)"/></g></g></g></svg>